<svg version="1.1" viewBox="0 0 512 512" xmlns="http://www.w3.org/2000/svg"><path d="m0 0h512v512h-512z" fill="#203060"/><path d="m354.31 151.06-40.46 54.043c3.9139-4.1625 8.2949-7.4486 13.159-9.8247 6.2151-3.1441 12.742-4.7144 19.578-4.7144 7.2509 0 13.672 1.5705 19.266 4.7144 5.8008 2.9344 11.291 6.8126 16.47 11.633l24.239-29.553c-6.8366-7.1265-15.433-13.31-25.791-18.55-8.0129-4.2157-16.836-6.7934-26.461-7.748zm-164.51.0768v209.67h47.27v-56.274l24.44-32.158 51.129 88.431h51.772l-74.924-126.06 63.349-83.607h-52.093l-62.384 85.86h-1.2866v-85.86zm-1.3889 135.95c-.24663 12.426-2.4524 21.122-6.6189 26.081-4.2177 5.0612-10.544 7.5918-18.98 7.5918-5.2721 0-10.439-1.6863-15.5-5.0604-5.0612-3.3741-9.4889-8.5409-13.285-15.5l-31.632 23.409c7.17 12.653 16.027 22.036 26.571 28.152 10.755 6.1157 24.04 9.1733 39.857 9.1733 7.1536 0 13.683-.74964 19.588-2.2475zm196.96 17.13c-4.9721 5.4497-10.772 10.06-17.402 13.832-6.4223 3.5632-13.777 5.3457-22.064 5.3457-.78913 0-1.5654-.0243-2.3378-.0565l22.23 37.503h.0103c17.078-4.1135 31.679-13.345 43.8-27.702z" fill="#fff"/></svg>