<?xml version="1.0" encoding="UTF-8" standalone="no"?>
<svg
   xmlns:dc="http://purl.org/dc/elements/1.1/"
   xmlns:cc="http://creativecommons.org/ns#"
   xmlns:rdf="http://www.w3.org/1999/02/22-rdf-syntax-ns#"
   xmlns:svg="http://www.w3.org/2000/svg"
   xmlns="http://www.w3.org/2000/svg"
   xmlns:sodipodi="http://sodipodi.sourceforge.net/DTD/sodipodi-0.dtd"
   xmlns:inkscape="http://www.inkscape.org/namespaces/inkscape"
   version="1.1"
   viewBox="0 0 128 128"
   id="svg6"
   sodipodi:docname="icon-site.svg"
   width="128"
   height="128"
   inkscape:version="0.92.2 (5c3e80d, 2017-08-06)">
  <metadata
     id="metadata12">
    <rdf:RDF>
      <cc:Work
         rdf:about="">
        <dc:format>image/svg+xml</dc:format>
        <dc:type
           rdf:resource="http://purl.org/dc/dcmitype/StillImage" />
        <dc:title></dc:title>
      </cc:Work>
    </rdf:RDF>
  </metadata>
  <defs
     id="defs10">
    <clipPath
       clipPathUnits="userSpaceOnUse"
       id="clipPath864">
      <path
         style="display:inline;opacity:1;fill:#000000;fill-opacity:1;stroke:none;stroke-width:1.95200002;stroke-linecap:square;stroke-linejoin:miter;stroke-miterlimit:4;stroke-dasharray:none;stroke-opacity:1;paint-order:markers stroke fill"
         d="M 128,64 A 64,64 0 0 1 64.000001,128 64,64 0 0 1 0,64 64,64 0 0 1 64.000001,0 64,64 0 0 1 128,64 Z"
         id="path866"
         inkscape:connector-curvature="0" />
    </clipPath>
  </defs>
  <sodipodi:namedview
     pagecolor="#ffffff"
     bordercolor="#666666"
     borderopacity="1"
     objecttolerance="10"
     gridtolerance="10"
     guidetolerance="10"
     inkscape:pageopacity="0"
     inkscape:pageshadow="2"
     inkscape:window-width="2498"
     inkscape:window-height="1417"
     id="namedview8"
     showgrid="false"
     inkscape:zoom="9.53125"
     inkscape:cx="64"
     inkscape:cy="61.697529"
     inkscape:window-x="54"
     inkscape:window-y="-8"
     inkscape:window-maximized="1"
     inkscape:current-layer="layer1"
     inkscape:pagecheckerboard="true" />
  <g
     inkscape:groupmode="layer"
     id="layer1"
     inkscape:label="Layer 1"
     style="display:inline">
    <path
       d="M 0,-4e-6 H 128 V 128 H 0 Z"
       id="path2"
       inkscape:connector-curvature="0"
       style="fill:#203060;stroke-width:0.25"
       clip-path="url(#clipPath864)" />
    <path
       d="M 88.577504,37.764996 78.4625,51.275746 c 0.978475,-1.04063 2.073724,-1.86215 3.289754,-2.45618 1.55377,-0.78602 3.1855,-1.17859 4.8945,-1.17859 1.81272,0 3.418,0.39262 4.8165,1.17859 1.4502,0.7336 2.82275,1.70315 4.1175,2.90825 l 6.059746,-7.38824 c -1.709146,-1.78163 -3.858246,-3.32751 -6.447746,-4.63751 -2.00323,-1.05392 -4.209,-1.69834 -6.61525,-1.93699 z M 47.45,37.784196 v 52.4175 h 11.8175 v -14.0685 l 6.11,-8.0395 12.78225,22.10775 H 91.102754 L 72.37175,58.686446 88.209004,37.784696 H 75.18575 l -15.596,21.465 H 59.2681 v -21.465 z m -0.347225,33.9875 c -0.06166,3.1065 -0.6131,5.2805 -1.654725,6.52025 -1.054425,1.2653 -2.636,1.89795 -4.745,1.89795 -1.318025,0 -2.60975,-0.42158 -3.875,-1.2651 -1.2653,-0.84353 -2.372225,-2.13522 -3.32125,-3.875 l -7.908,5.85225 c 1.7925,3.16325 4.00675,5.509 6.64275,7.038 2.68875,1.52892 6.01,2.29332 9.96425,2.29332 1.7884,0 3.42075,-0.18741 4.897,-0.56187 z m 49.239999,4.2825 c -1.24302,1.36242 -2.693,2.515 -4.3505,3.458 -1.60557,0.8908 -3.44425,1.33642 -5.516,1.33642 -0.19728,0 -0.39135,-0.006 -0.58445,-0.0141 l 5.5575,9.37575 h 0.003 c 4.2695,-1.02838 7.91975,-3.33625 10.950006,-6.9255 z"
       id="path4"
       inkscape:connector-curvature="0"
       style="fill:#ffffff;stroke-width:0.25" />
  </g>
</svg>
